<?xml version="1.0" encoding="UTF-8" standalone="no"?>
<svg
   xmlns:dc="http://purl.org/dc/elements/1.1/"
   xmlns:cc="http://creativecommons.org/ns#"
   xmlns:rdf="http://www.w3.org/1999/02/22-rdf-syntax-ns#"
   xmlns:svg="http://www.w3.org/2000/svg"
   xmlns="http://www.w3.org/2000/svg"
   xmlns:sodipodi="http://sodipodi.sourceforge.net/DTD/sodipodi-0.dtd"
   xmlns:inkscape="http://www.inkscape.org/namespaces/inkscape"
   viewBox="0 0 50.000002 56.760001"
   version="1.1"
   id="svg38"
   sodipodi:docname="kosmic_logo_2022.svg"
   width="50"
   height="56.759998"
   inkscape:version="1.0.1 (3bc2e813f5, 2020-09-07)">
  <metadata
     id="metadata44">
    <rdf:RDF>
      <cc:Work
         rdf:about="">
        <dc:format>image/svg+xml</dc:format>
        <dc:type
           rdf:resource="http://purl.org/dc/dcmitype/StillImage" />
        <dc:title>kosmic_logo</dc:title>
      </cc:Work>
    </rdf:RDF>
  </metadata>
  <defs
     id="defs42" />
  <sodipodi:namedview
     pagecolor="#ffffff"
     bordercolor="#666666"
     borderopacity="1"
     objecttolerance="10"
     gridtolerance="10"
     guidetolerance="10"
     inkscape:pageopacity="0"
     inkscape:pageshadow="2"
     inkscape:window-width="1920"
     inkscape:window-height="1025"
     id="namedview40"
     showgrid="false"
     inkscape:zoom="2.5440314"
     inkscape:cx="159.62"
     inkscape:cy="140.52499"
     inkscape:window-x="1920"
     inkscape:window-y="26"
     inkscape:window-maximized="1"
     inkscape:current-layer="Ebene_1-2" />
  <title
     id="title2">kosmic_logo</title>
  <g
     id="Ebene_2"
     data-name="Ebene 2">
    <g
       id="Ebene_1-2"
       data-name="Ebene 1">
      <ellipse
         cx="24.722494"
         cy="27.52545"
         rx="24.535246"
         ry="27.338125"
         fill="none"
         stroke="#999999"
         stroke-linecap="round"
         stroke-miterlimit="10"
         stroke-width="0.373918"
         stroke-dasharray="1.31806, 2.07151"
         id="ellipse4" />
      <ellipse
         cx="42.776398"
         cy="12.89818"
         rx="6.4626002"
         ry="6.789145"
         fill="#8eacbb"
         id="ellipse12"
         style="stroke-width:0.708073" />
      <ellipse
         cx="40.035553"
         cy="11.370265"
         rx="1.6347805"
         ry="1.7225114"
         fill="#34515e"
         id="ellipse14"
         style="stroke-width:0.708073" />
      <ellipse
         cx="40.265106"
         cy="15.226095"
         rx="0.75825995"
         ry="0.79999483"
         fill="#34515e"
         id="ellipse16"
         style="stroke-width:0.708073" />
      <ellipse
         cx="43.729458"
         cy="11.946835"
         rx="0.57043403"
         ry="0.5981943"
         fill="#34515e"
         id="ellipse18"
         style="stroke-width:0.708073" />
      <ellipse
         cx="44.432053"
         cy="14.887358"
         rx="1.4678241"
         ry="1.5423324"
         fill="#34515e"
         id="ellipse20"
         style="stroke-width:0.708073" />
      <ellipse
         cx="42.317287"
         cy="8.4081221"
         rx="0.75825995"
         ry="0.79999483"
         fill="#34515e"
         id="ellipse22"
         style="stroke-width:0.708073" />
      <ellipse
         cx="42.150318"
         cy="17.330585"
         rx="0.91130316"
         ry="0.95855236"
         fill="#34515e"
         id="ellipse24"
         style="stroke-width:0.708073" />
      <ellipse
         cx="46.679012"
         cy="11.608097"
         rx="0.66782522"
         ry="0.69909459"
         fill="#34515e"
         id="ellipse26"
         style="stroke-width:0.708073" />
      <ellipse
         cx="24.95126"
         cy="27.180304"
         rx="11.87906"
         ry="11.097692"
         fill="#ffffff"
         opacity="0.44"
         id="ellipse28"
         style="stroke-width:0.543399" />
      <ellipse
         cx="24.95126"
         cy="27.180304"
         rx="11.87906"
         ry="11.097692"
         fill="#78ecff"
         id="ellipse30"
         style="stroke-width:0.543399" />
      <path
         d="m 17.573557,24.442391 c -1.39287,0 -2.26484,2.24248 -2.47433,3.20206 -0.18685,0.88134 0.32274,1.30898 0.56621,1.96608 0.24347,0.6571 -0.38503,1.04302 -0.38503,1.50194 0,1.38722 0.56621,2.08604 1.21735,3.36373 0.53224,0.99608 2.36109,0.62581 2.66118,2.01824 a 2.1855659,2.0130211 0 0 1 0.0283,0.37548 11.794129,10.863013 0 0 0 2.02137,0.82399 c 0,-0.47458 0.50393,-0.8292 0.77571,-1.25162 0.77004,-1.19426 -0.0283,-1.91915 -0.56621,-2.89959 -0.2548,-0.47457 0.27744,-1.11603 0.27744,-1.56452 0,-0.77705 1.20602,-5.50191 0.88895,-5.79917 -0.81534,-0.7614 -2.33278,-0.31812 -2.60456,-0.56845 -0.16987,-0.15645 -0.3737,-0.0939 -0.61151,-0.2086 -0.45297,-0.21382 -0.7757,-0.64667 -1.16639,-0.8292 a 1.3872115,1.2776947 0 0 0 -0.62849,-0.15123 z"
         fill="#00675b"
         id="path32"
         style="stroke-width:0.543399" />
      <path
         d="m 30.539737,18.069561 a 0.95123075,0.87613353 0 0 0 -0.36804,0.0521 9.6255493,8.865637 0 0 1 0.22649,1.17861 c 0.79269,3.5619 -3.15378,1.34549 -4.48438,1.94522 -0.1642,0.073 -0.16986,0.56323 -0.2831,0.66753 -0.40767,0.36506 -2.03269,-0.36505 -2.44036,0 -0.0679,0.0626 0.13023,0.25554 0.0566,0.35984 -0.23214,0.31291 -0.7021,0.42242 -0.96255,0.71447 -0.10192,0.11473 -0.0566,0.32333 -0.0566,0.45893 0,1.09516 1.60237,0.39113 2.32711,0.71446 a 3.4595357,3.1864142 0 0 1 1.36457,1.32985 c 0.60018,1.08473 0.37936,2.68576 0.84931,3.53061 0.31708,0.56844 0.61717,0.68839 0.79269,1.32984 0.11891,0.42764 -0.15287,0.96479 0,1.382 0.0963,0.26597 1.93077,0.23989 2.21388,0.15124 a 14.778049,13.61136 0 0 0 2.26483,-1.07431 c 0.56621,-0.41721 1.63635,-2.97781 1.01918,-3.53061 -0.0566,-0.0469 -0.41899,-0.49543 -0.2831,-0.61538 0.3284,-0.29726 2.83104,-0.0417 3.87286,-1.37678 a 11.890384,10.951669 0 0 0 -4.9883,-7.17595 v 0 c -0.29442,0 -0.76438,-0.0521 -1.13241,-0.0521 z"
         fill="#00675b"
         id="path34"
         style="stroke-width:0.543399" />
    </g>
  </g>
</svg>
